<svg xmlns="http://www.w3.org/2000/svg" width="65.269" height="55.978" viewBox="0 0 65.269 55.978"><defs><style>.a{fill:#fff;}</style></defs><path class="a" d="M187.27,109.357a6.521,6.521,0,1,0-6.52-6.52A6.528,6.528,0,0,0,187.27,109.357Zm0-9.217a2.7,2.7,0,1,1-2.7,2.7A2.7,2.7,0,0,1,187.27,100.141Zm0,0" transform="translate(-157.708 -84.102)"/><path class="a" d="M62.886.5H2.384A2.386,2.386,0,0,0,0,2.883V54.095a2.386,2.386,0,0,0,2.383,2.383h60.5a2.386,2.386,0,0,0,2.383-2.383V2.883A2.386,2.386,0,0,0,62.886.5ZM61.445,4.324V34.588L49.417,22.56a2.014,2.014,0,0,0-2.843,0L29.563,39.572,18.7,28.707a2.011,2.011,0,0,0-2.845,0L3.825,40.733V4.324ZM3.825,52.653V46.141L17.274,32.692,28.139,43.558a2.01,2.01,0,0,0,2.845,0L48,26.547,61.445,40V52.653Zm0,0" transform="translate(-0.001 -0.5)"/></svg>